<?xml version="1.0" encoding="iso-8859-1"?>
<!-- Generator: Adobe Illustrator 16.0.0, SVG Export Plug-In . SVG Version: 6.00 Build 0)  -->
<!DOCTYPE svg PUBLIC "-//W3C//DTD SVG 1.1//EN" "http://www.w3.org/Graphics/SVG/1.1/DTD/svg11.dtd">
<svg version="1.1" id="Capa_1" xmlns="http://www.w3.org/2000/svg" xmlns:xlink="http://www.w3.org/1999/xlink" x="0px" y="0px"
	 width="28.621px" height="28.621px" viewBox="0 0 28.621 28.621" style="enable-background:new 0 0 28.621 28.621;"
	 xml:space="preserve">
<g>
	<path d="M14.311,0c-6.904,0-12.5,5.596-12.5,12.5c0,4.723,2.618,8.828,6.48,10.955l-0.147,5.166l5.898-3.635
		C14.131,24.988,14.22,25,14.311,25c6.904,0,12.5-5.596,12.5-12.5C26.811,5.596,21.215,0,14.311,0z M15.99,5.573l-0.465,9.553
		h-2.404l-0.483-9.553H15.99z M14.325,20.018c-1.141,0-1.899-0.822-1.899-1.918c0-1.119,0.779-1.92,1.899-1.92
		c1.115,0,1.854,0.801,1.875,1.92C16.199,19.193,15.461,20.018,14.325,20.018z"/>
</g>
<g>
</g>
<g>
</g>
<g>
</g>
<g>
</g>
<g>
</g>
<g>
</g>
<g>
</g>
<g>
</g>
<g>
</g>
<g>
</g>
<g>
</g>
<g>
</g>
<g>
</g>
<g>
</g>
<g>
</g>
</svg>
