<?xml version="1.0" encoding="iso-8859-1"?>
<!-- Generator: Adobe Illustrator 16.0.0, SVG Export Plug-In . SVG Version: 6.00 Build 0)  -->
<!DOCTYPE svg PUBLIC "-//W3C//DTD SVG 1.1//EN" "http://www.w3.org/Graphics/SVG/1.1/DTD/svg11.dtd">
<svg version="1.1" id="Capa_1" xmlns="http://www.w3.org/2000/svg" xmlns:xlink="http://www.w3.org/1999/xlink" x="0px" y="0px"
	 width="385.389px" height="385.389px" viewBox="0 0 385.389 385.389" style="enable-background:new 0 0 385.389 385.389;"
	 xml:space="preserve">
<g>
	<g>
		<path d="M320.687,249.521c1.452,3.413,4.764,5.606,8.465,5.606c1.219,0,2.412-0.233,3.565-0.716
			c2.265-0.96,4.031-2.742,4.95-5.018c0.93-2.27,0.909-4.773-0.045-7.038c-2.463-5.824-5.322-11.557-8.455-17.026
			c-27.954-48.845-80.278-79.181-136.501-79.181c-63.343,0-120.216,37.689-144.888,96.024c-1.96,4.651,0.213,10.055,4.905,12.045
			c4.568,1.89,10.105-0.386,12.032-4.895c21.787-51.517,72.008-84.8,127.94-84.8c49.653,0,95.867,26.796,120.571,69.931
			C315.989,239.279,318.498,244.337,320.687,249.521z"/>
		<path d="M376.184,235.263c1.214,0,2.423-0.238,3.575-0.721c2.27-0.955,4.017-2.732,4.956-5.002
			c0.909-2.274,0.909-4.773-0.066-7.054c-1-2.396-2.066-4.763-3.143-7.134C347.396,142.3,273.269,95.091,192.666,95.091
			c-83.906,0-159.25,49.937-191.948,127.224c-1.96,4.661,0.229,10.064,4.905,12.045c4.613,1.935,10.136-0.387,12.032-4.891
			c29.815-70.467,98.505-115.986,175.01-115.986c73.493,0,141.086,43.023,172.163,109.633c1.006,2.158,1.976,4.316,2.885,6.525
			C369.166,233.054,372.502,235.263,376.184,235.263z"/>
		<path d="M238.108,230.774c13.99,8.744,25.491,21.464,32.611,37.044c1.325,2.919,2.493,5.926,3.468,8.927
			c1.229,3.809,4.753,6.357,8.744,6.357c0.955,0,1.895-0.147,2.829-0.441c4.809-1.564,7.464-6.765,5.926-11.589
			c-1.234-3.747-2.656-7.413-4.261-10.902c-16.915-37.003-54.116-60.91-94.77-60.91c-44.483,0-84.079,28.249-98.505,70.31
			c-0.805,2.315-0.647,4.814,0.437,7.019c1.066,2.203,2.93,3.854,5.261,4.661c4.692,1.609,10.072-1.021,11.684-5.713
			c6.541-19.058,19.362-34.667,35.668-44.863c3.697-2.315,7.221-1.676,8.358,0.781c0.678,1.468,1.549,2.859,2.6,4.129
			c0,0,2.115,2.585,4.74,5.759c2.613,3.184,2.613,8.343-0.01,11.526l-4.748,5.769c-2.829,3.463-4.382,7.815-4.382,12.284
			c0,5.799,2.575,11.268,7.069,14.979c3.46,2.828,7.805,4.397,12.286,4.397c5.829,0,11.28-2.574,14.978-7.078
			c0,0,1.025-1.255,2.297-2.804s3.336-1.549,4.616,0l2.313,2.804c3.534,4.326,9.181,6.891,15.106,6.891
			c4.52,0,8.826-1.498,12.142-4.21c8.257-6.779,9.44-19.007,2.671-27.254c0,0-2.117-2.584-4.742-5.763
			c-2.615-3.185-2.615-8.339,0-11.522l4.742-5.764c1.036-1.259,1.879-2.646,2.534-4.098
			C230.878,229.058,234.406,228.469,238.108,230.774z M153.804,223.878c0.033,0.315,0.033,0.32-0.008,0.005
			c-0.023-0.188-0.048-0.37-0.048-0.559c0-0.726,0.041-1.447,0.12-2.158c0.134-1.193,0.134-1.193,0.007-0.005
			c-0.079,0.711-0.109,1.422-0.109,2.138C153.766,223.487,153.781,223.686,153.804,223.878z M209.524,241.012
			c-2.768,3.371-2.768,8.84,0,12.207l9.796,11.918c1.538,1.884,2.249,4.261,2.021,6.692c-0.229,2.433-1.406,4.616-3.285,6.155
			c-3.58,2.96-9.892,2.305-12.837-1.255l-7.516-9.135c-2.77-3.372-7.259-3.372-10.031,0l-7.513,9.14
			c-3.072,3.748-9.1,4.316-12.822,1.265c-2.133-1.752-3.334-4.326-3.334-7.068c0-2.133,0.696-4.134,2.069-5.794l9.798-11.918
			c2.773-3.377,2.773-8.841,0-12.207l-9.798-11.919c-1.358-1.66-2.069-3.666-2.069-5.794c0-2.742,1.201-5.316,3.319-7.043
			c1.65-1.371,3.656-2.087,5.784-2.087c2.747,0,5.324,1.209,7.053,3.326l7.513,9.155c2.772,3.372,7.261,3.372,10.026,0l7.51-9.15
			c2.915-3.544,9.278-4.184,12.857-1.244c1.879,1.539,3.037,3.728,3.271,6.145c0.244,2.433-0.492,4.804-2.041,6.692L209.524,241.012
			z"/>
	</g>
</g>
<g>
</g>
<g>
</g>
<g>
</g>
<g>
</g>
<g>
</g>
<g>
</g>
<g>
</g>
<g>
</g>
<g>
</g>
<g>
</g>
<g>
</g>
<g>
</g>
<g>
</g>
<g>
</g>
<g>
</g>
</svg>
